# xmcd
#
# Track frame offsets: 
#        182
#        18627
#        35397
#        54075
#        69312
#        85160
#        101757
#        113460
#        124432
#        146237
#
# Disc length: 2217 seconds
#
# Revision: 2
# Processed by: cddbd v1.5.2PL0 Copyright (c) Steve Scherf et al.
# Submitted via: ExactAudioCopyFreeDBPlugin 1.0
#
DISCID=8308a70a
DTITLE=The Booze Brothers - Brewers Droop
DYEAR=1900
DGENRE=
TTITLE0=Where Are You Tonight
TTITLE1=My Old Lady
TTITLE2=Rock Steady Woman
TTITLE3=Louise
TTITLE4=Roller Coaster
TTITLE5=You Make Me Feel So Good
TTITLE6=Sugar Baby
TTITLE7=What's The Time
TTITLE8=Midnight Special
TTITLE9=Dreaming
EXTD=
EXTT0=
EXTT1=
EXTT2=
EXTT3=
EXTT4=
EXTT5=
EXTT6=
EXTT7=
EXTT8=
EXTT9=
PLAYORDER=
